<?xml version="1.0" encoding="utf-8"?>
<!-- Generator: Adobe Illustrator 15.0.0, SVG Export Plug-In  -->
<!DOCTYPE svg PUBLIC "-//W3C//DTD SVG 1.1//EN" "http://www.w3.org/Graphics/SVG/1.1/DTD/svg11.dtd" [
	<!ENTITY ns_flows "http://ns.adobe.com/Flows/1.0/">
]>
<svg version="1.1"
	 xmlns="http://www.w3.org/2000/svg" xmlns:xlink="http://www.w3.org/1999/xlink" xmlns:a="http://ns.adobe.com/AdobeSVGViewerExtensions/3.0/"
	 x="0px" y="0px" width="23px" height="36px" viewBox="0 0 23 36" overflow="visible" enable-background="new 0 0 23 36"
	 xml:space="preserve">
<defs>
</defs>
<path fill="#939598" d="M13.991,3v0.246V6.49c1.072,0.111,2.018,0.274,2.807,0.484c0.844,0.225,1.525,0.453,2.033,0.682l0.188,0.084
	l-0.051,0.201l-1.038,4.002l-0.069,0.273l-0.264-0.109c-0.724-0.305-1.572-0.568-2.518-0.787c-0.953-0.219-1.965-0.328-3.008-0.328
	c-1.01,0-1.736,0.164-2.158,0.484c-0.406,0.309-0.604,0.703-0.604,1.205c0,0.311,0.062,0.578,0.184,0.795
	c0.123,0.219,0.326,0.42,0.605,0.598c0.301,0.193,0.678,0.383,1.115,0.564c0.439,0.183,0.975,0.383,1.645,0.615
	c0.982,0.355,1.908,0.752,2.755,1.18c0.847,0.43,1.595,0.93,2.227,1.489c0.632,0.561,1.136,1.234,1.496,1.996
	c0.356,0.762,0.54,1.66,0.54,2.668c0,0.695-0.104,1.385-0.311,2.057c-0.211,0.686-0.564,1.326-1.052,1.9
	c-0.487,0.58-1.124,1.082-1.896,1.492c-0.717,0.385-1.6,0.674-2.627,0.857v3.859V33h-0.246H9.53H9.284v-0.248V29.01
	c-1.539-0.139-2.816-0.389-3.801-0.742C4.45,27.893,3.702,27.59,3.2,27.338L3,27.241l0.078-0.207L4.514,23.2l0.098-0.256
	l0.244,0.119c0.76,0.369,1.684,0.711,2.752,1.018c1.055,0.305,2.186,0.459,3.359,0.459c1.303,0,2.193-0.17,2.648-0.504
	c0.438-0.32,0.649-0.762,0.649-1.352c0-0.369-0.086-0.689-0.261-0.947c-0.179-0.268-0.445-0.52-0.795-0.746
	c-0.365-0.236-0.836-0.471-1.398-0.695c-0.566-0.23-1.221-0.473-1.998-0.748c-0.736-0.268-1.469-0.566-2.174-0.891
	c-0.723-0.33-1.381-0.74-1.959-1.217c-0.592-0.484-1.076-1.09-1.435-1.797c-0.364-0.711-0.548-1.572-0.548-2.561
	c0-0.752,0.11-1.49,0.33-2.189c0.219-0.703,0.566-1.354,1.029-1.932s1.072-1.076,1.814-1.48c0.684-0.371,1.492-0.654,2.412-0.838
	V3.246V3H9.53h4.215H13.991 M13.991,0h-0.246H9.53H9.284c-1.657,0-3,1.343-3,3v0.246v1.19C5.992,4.562,5.71,4.697,5.44,4.844
	C4.344,5.44,3.429,6.194,2.715,7.086c-0.7,0.874-1.223,1.855-1.552,2.915c-0.309,0.98-0.466,2.02-0.466,3.081
	c0,1.47,0.295,2.792,0.878,3.928c0.542,1.07,1.285,1.998,2.204,2.75c0.096,0.08,0.192,0.156,0.291,0.232
	c-0.19,0.035-0.378,0.088-0.561,0.16c-0.783,0.309-1.4,0.934-1.701,1.721l-0.098,0.256l-1.442,3.852L0.194,26.18
	c-0.546,1.447,0.098,3.072,1.486,3.754l0.199,0.098c0.577,0.289,1.405,0.629,2.58,1.057c0.551,0.197,1.16,0.367,1.824,0.51v1.154V33
	c0,1.656,1.343,3,3,3H9.53h4.215h0.246c1.657,0,3-1.344,3-3v-0.248v-1.592c0.368-0.145,0.717-0.307,1.046-0.482
	c1.101-0.584,2.037-1.328,2.773-2.205c0.742-0.873,1.291-1.869,1.623-2.949c0.293-0.953,0.443-1.941,0.443-2.938
	c0-1.447-0.277-2.773-0.824-3.939c-0.539-1.143-1.285-2.136-2.22-2.967c-0.269-0.237-0.55-0.465-0.845-0.683
	c0.073-0.03,0.146-0.062,0.216-0.099c0.779-0.39,1.351-1.1,1.565-1.944l0.068-0.273l1.035-3.986l0.055-0.22
	c0.357-1.412-0.354-2.877-1.682-3.473l-0.188-0.084c-0.659-0.296-1.475-0.572-2.488-0.843c-0.187-0.049-0.379-0.097-0.578-0.142
	V3.246V3C16.991,1.343,15.648,0,13.991,0L13.991,0z"/>
</svg>
