<?xml version="1.0" encoding="utf-8"?>
<!-- Generator: Adobe Illustrator 15.0.0, SVG Export Plug-In  -->
<!DOCTYPE svg PUBLIC "-//W3C//DTD SVG 1.1//EN" "http://www.w3.org/Graphics/SVG/1.1/DTD/svg11.dtd" [
	<!ENTITY ns_flows "http://ns.adobe.com/Flows/1.0/">
]>
<svg version="1.1"
	 xmlns="http://www.w3.org/2000/svg" xmlns:xlink="http://www.w3.org/1999/xlink" xmlns:a="http://ns.adobe.com/AdobeSVGViewerExtensions/3.0/"
	 x="0px" y="0px" width="21px" height="22px" viewBox="0 0 21 22" overflow="visible" enable-background="new 0 0 21 22"
	 xml:space="preserve">
<defs>
</defs>
<path fill="#A8AAAD" d="M16,3V0h-3v3H7V0H4v3H0v19h21V3H16z M4,20H2v-2h2V20z M4,17H2v-2h2V17z M4,14H2v-2h2V14z M4,11H2V9h2V11z
	 M7,20H5v-2h2V20z M7,17H5v-2h2V17z M7,14H5v-2h2V14z M7,11H5V9h2V11z M10,20H8v-2h2V20z M10,17H8v-2h2V17z M10,14H8v-2h2V14z
	 M10,11H8V9h2V11z M13,20h-2v-2h2V20z M13,17h-2v-2h2V17z M13,14h-2v-2h2V14z M13,11h-2V9h2V11z M16,20h-2v-2h2V20z M16,17h-2v-2h2
	V17z M16,14h-2v-2h2V14z M16,11h-2V9h2V11z M19,20h-2v-2h2V20z M19,17h-2v-2h2V17z M19,14h-2v-2h2V14z M19,11h-2V9h2V11z"/>
</svg>
