<?xml version="1.0" encoding="utf-8"?>
<!-- Generator: Adobe Illustrator 15.0.0, SVG Export Plug-In  -->
<!DOCTYPE svg PUBLIC "-//W3C//DTD SVG 1.1//EN" "http://www.w3.org/Graphics/SVG/1.1/DTD/svg11.dtd" [
	<!ENTITY ns_flows "http://ns.adobe.com/Flows/1.0/">
]>
<svg version="1.1"
	 xmlns="http://www.w3.org/2000/svg" xmlns:xlink="http://www.w3.org/1999/xlink" xmlns:a="http://ns.adobe.com/AdobeSVGViewerExtensions/3.0/"
	 x="0px" y="0px" width="36px" height="36px" viewBox="0 0 36 36" overflow="visible" enable-background="new 0 0 36 36"
	 xml:space="preserve">
<defs>
</defs>
<path fill="#939598" d="M18,0C8.06,0,0,8.06,0,18c0,1.99,0.32,3.91,0.93,5.7C3.31,30.851,10.05,36,18,36
	c7.951,0,14.7-5.149,17.08-12.3c0.61-1.79,0.931-3.71,0.931-5.7C36.01,8.06,27.951,0,18,0 M18,33c-6.04,0-11.25-3.59-13.63-8.74
	c2.48-2.88,5.86-4.97,9.7-5.819l-0.09,0.83C12.75,20.38,12,21.96,12,23.69c0,3.31,2.7,5.989,6,5.989c3.31,0,6.01-2.7,6.01-6.01
	c0-1.66-0.7-3.229-1.88-4.35l-0.08-0.86c3.79,0.87,7.13,2.94,9.58,5.79C29.26,29.41,24.05,33,18,33 M15,23.66
	c0-1.23,0.75-2.29,1.81-2.75l0.32-2.88l0.34-3.021l0.71-6.35l0.56,6.359l0.27,3.011l0.26,2.92c1.021,0.47,1.74,1.5,1.74,2.71
	c0,1.66-1.351,3-3.01,3C16.35,26.66,15,25.32,15,23.66 M32.7,21c-2.999-2.95-6.8-4.91-10.919-5.65l-0.611-6.82
	c-0.129-1.54-1.409-2.62-2.949-2.62h-0.04c-1.52,0-2.81,1.02-2.98,2.54l-0.77,6.859c-4.19,0.711-8.07,2.7-11.13,5.711
	C3.1,20.04,3,19.03,3,18C3,9.73,9.73,3,18,3c8.281,0,15,6.73,15,15C33,19.03,32.9,20.03,32.7,21"/>
</svg>
