<?xml version="1.0" encoding="utf-8"?>
<!-- Generator: Adobe Illustrator 15.0.0, SVG Export Plug-In  -->
<!DOCTYPE svg PUBLIC "-//W3C//DTD SVG 1.1//EN" "http://www.w3.org/Graphics/SVG/1.1/DTD/svg11.dtd" [
	<!ENTITY ns_flows "http://ns.adobe.com/Flows/1.0/">
]>
<svg version="1.1"
	 xmlns="http://www.w3.org/2000/svg" xmlns:xlink="http://www.w3.org/1999/xlink" xmlns:a="http://ns.adobe.com/AdobeSVGViewerExtensions/3.0/"
	 x="0px" y="0px" width="6px" height="10px" viewBox="0 0 6 10" overflow="visible" enable-background="new 0 0 6 10"
	 xml:space="preserve">
<defs>
</defs>
<path fill="#FFFFFF" d="M1.788,6.609v-0.49c0-0.424,0.09-0.792,0.271-1.106c0.182-0.314,0.512-0.646,0.994-1
	c0.463-0.331,0.77-0.6,0.917-0.808C4.117,2.998,4.191,2.766,4.191,2.51c0-0.288-0.105-0.506-0.318-0.656
	C3.662,1.705,3.366,1.629,2.986,1.629c-0.662,0-1.417,0.216-2.265,0.649L0,0.828C0.984,0.276,2.028,0,3.132,0
	c0.909,0,1.631,0.219,2.168,0.656c0.536,0.437,0.805,1.019,0.805,1.748c0,0.485-0.109,0.904-0.331,1.259
	c-0.221,0.353-0.64,0.75-1.259,1.191C4.092,5.168,3.824,5.406,3.712,5.569C3.599,5.732,3.542,5.946,3.542,6.212v0.397H1.788z
	 M1.576,8.874c0-0.371,0.099-0.651,0.298-0.842c0.198-0.188,0.487-0.283,0.868-0.283c0.366,0,0.65,0.096,0.852,0.291
	c0.2,0.194,0.3,0.473,0.3,0.834c0,0.349-0.102,0.623-0.304,0.824C3.386,9.899,3.103,10,2.742,10C2.371,10,2.083,9.901,1.88,9.705
	S1.576,9.231,1.576,8.874z"/>
</svg>
