<?xml version="1.0" encoding="utf-8"?>
<!-- Generator: Adobe Illustrator 15.0.0, SVG Export Plug-In  -->
<!DOCTYPE svg PUBLIC "-//W3C//DTD SVG 1.1//EN" "http://www.w3.org/Graphics/SVG/1.1/DTD/svg11.dtd" [
	<!ENTITY ns_flows "http://ns.adobe.com/Flows/1.0/">
]>
<svg version="1.1"
	 xmlns="http://www.w3.org/2000/svg" xmlns:xlink="http://www.w3.org/1999/xlink" xmlns:a="http://ns.adobe.com/AdobeSVGViewerExtensions/3.0/"
	 x="0px" y="0px" width="31px" height="35px" viewBox="0 0 31 35" overflow="visible" enable-background="new 0 0 31 35"
	 xml:space="preserve">
<defs>
</defs>
<path fill="#939598" d="M31,1.5C31,0.671,30.328,0,29.5,0h-28C0.672,0,0,0.671,0,1.5v32C0,34.328,0.672,35,1.5,35h28
	c0.828,0,1.5-0.672,1.5-1.5V1.5z M28,32H3V13h25V32z M28,10H3V3h25V10z"/>
<rect x="21" y="17" fill="#939598" width="4" height="11"/>
<rect x="6" y="24" fill="#939598" width="4" height="4"/>
<rect x="6" y="17" fill="#939598" width="4" height="4"/>
<rect x="13" y="17" fill="#939598" width="4" height="4"/>
<rect x="13" y="24" fill="#939598" width="4" height="4"/>
</svg>
