<?xml version="1.0" encoding="utf-8"?>
<!-- Generator: Adobe Illustrator 15.0.0, SVG Export Plug-In  -->
<!DOCTYPE svg PUBLIC "-//W3C//DTD SVG 1.1//EN" "http://www.w3.org/Graphics/SVG/1.1/DTD/svg11.dtd" [
	<!ENTITY ns_flows "http://ns.adobe.com/Flows/1.0/">
]>
<svg version="1.1"
	 xmlns="http://www.w3.org/2000/svg" xmlns:xlink="http://www.w3.org/1999/xlink" xmlns:a="http://ns.adobe.com/AdobeSVGViewerExtensions/3.0/"
	 x="0px" y="0px" width="16px" height="16px" viewBox="0 0 16 16" overflow="visible" enable-background="new 0 0 16 16"
	 xml:space="preserve">
<defs>
</defs>
<g>
	<g>
		<path fill="#A8AAAD" d="M12.01,9.802l-0.938-0.949c0.236-0.407,0.417-0.844,0.55-1.299c0.143-0.502,0.218-1.052,0.218-1.62
			c0-0.304-0.028-0.598-0.066-0.892c-0.038-0.227-0.085-0.463-0.151-0.691c-0.028-0.104-0.057-0.209-0.095-0.312
			c-0.096-0.257-0.199-0.522-0.322-0.76c-0.057-0.113-0.123-0.237-0.189-0.34c-0.104-0.162-0.208-0.332-0.322-0.493
			c0-0.01-0.02-0.01-0.02-0.03l-0.01-0.009c-0.142-0.199-0.303-0.389-0.474-0.559c-0.151-0.171-0.322-0.332-0.503-0.484
			C9.669,1.346,9.64,1.337,9.631,1.327C9.536,1.241,9.451,1.166,9.347,1.109C9.148,0.957,8.929,0.815,8.702,0.691
			C8.549,0.616,8.389,0.54,8.219,0.474C7.868,0.331,7.507,0.198,7.109,0.123C6.73,0.037,6.342,0,5.924,0C2.654,0,0,2.654,0,5.934
			c0,3.27,2.654,5.925,5.924,5.925c0.635,0,1.252-0.105,1.83-0.295c0.426-0.143,0.844-0.332,1.242-0.588l0.967,0.959l0.73,0.729
			L14.02,16l2.096-2.094L12.01,9.802z M8.863,7.45C8.549,8.067,8.039,8.559,7.432,8.873C6.977,9.109,6.475,9.242,5.924,9.242
			c-0.199,0-0.379-0.01-0.568-0.057c-1.555-0.256-2.74-1.631-2.74-3.251c0-1.829,1.479-3.318,3.309-3.318
			c1.621,0,2.948,1.166,3.232,2.692c0.048,0.198,0.076,0.417,0.076,0.626C9.233,6.483,9.1,6.995,8.863,7.45z"/>
	</g>
</g>
</svg>
