<?xml version="1.0" encoding="utf-8"?>
<!-- Generator: Adobe Illustrator 15.0.0, SVG Export Plug-In  -->
<!DOCTYPE svg PUBLIC "-//W3C//DTD SVG 1.1//EN" "http://www.w3.org/Graphics/SVG/1.1/DTD/svg11.dtd" [
	<!ENTITY ns_flows "http://ns.adobe.com/Flows/1.0/">
]>
<svg version="1.1"
	 xmlns="http://www.w3.org/2000/svg" xmlns:xlink="http://www.w3.org/1999/xlink" xmlns:a="http://ns.adobe.com/AdobeSVGViewerExtensions/3.0/"
	 x="0px" y="0px" width="15px" height="16px" viewBox="0 0 15 16" overflow="visible" enable-background="new 0 0 15 16"
	 xml:space="preserve">
<defs>
</defs>
<path fill-rule="evenodd" clip-rule="evenodd" fill="#FFFFFF" d="M14.658,10.415l-1.895-1.12C12.856,8.88,12.916,8.449,12.916,8
	c0-0.446-0.06-0.877-0.152-1.295l1.895-1.118c0.189-0.111,0.256-0.354,0.146-0.547l-1.179-2.078
	c-0.104-0.191-0.345-0.257-0.533-0.147l-1.897,1.121C10.579,3.342,9.83,2.889,8.995,2.639V0.402C8.995,0.181,8.82,0,8.606,0H6.251
	C6.037,0,5.86,0.181,5.86,0.402v2.237c-0.834,0.25-1.582,0.703-2.196,1.297L1.766,2.814c-0.189-0.109-0.43-0.044-0.533,0.147
	L0.054,5.04c-0.11,0.192-0.045,0.436,0.145,0.547l1.896,1.118C2.001,7.123,1.941,7.554,1.941,8c0,0.449,0.06,0.88,0.153,1.295
	l-1.896,1.12c-0.189,0.112-0.255,0.355-0.145,0.547l1.179,2.078c0.104,0.192,0.343,0.257,0.533,0.146l1.898-1.118
	c0.614,0.594,1.362,1.047,2.196,1.297v2.236C5.86,15.821,6.037,16,6.251,16h2.355c0.214,0,0.389-0.179,0.389-0.399v-2.236
	c0.835-0.25,1.584-0.703,2.199-1.297l1.898,1.118c0.189,0.111,0.429,0.047,0.532-0.146l1.179-2.078
	C14.914,10.771,14.849,10.527,14.658,10.415z M7.429,11.429C5.539,11.429,4,9.891,4,8s1.539-3.429,3.429-3.429
	S10.857,6.109,10.857,8S9.318,11.429,7.429,11.429z"/>
</svg>
