<?xml version="1.0" encoding="utf-8"?>
<!-- Generator: Adobe Illustrator 15.0.0, SVG Export Plug-In  -->
<!DOCTYPE svg PUBLIC "-//W3C//DTD SVG 1.1//EN" "http://www.w3.org/Graphics/SVG/1.1/DTD/svg11.dtd" [
	<!ENTITY ns_flows "http://ns.adobe.com/Flows/1.0/">
]>
<svg version="1.1"
	 xmlns="http://www.w3.org/2000/svg" xmlns:xlink="http://www.w3.org/1999/xlink" xmlns:a="http://ns.adobe.com/AdobeSVGViewerExtensions/3.0/"
	 x="0px" y="0px" width="32px" height="32px" viewBox="0 0.066 32 32" overflow="visible" enable-background="new 0 0.066 32 32"
	 xml:space="preserve">
<defs>
</defs>
<path fill="#939598" d="M32.354,16.067c0-3.958-1.443-7.57-3.82-10.363l3.582-3.582L29.994,0l-3.61,3.61
	c-2.745-2.213-6.229-3.544-10.029-3.544c-4.025,0-7.692,1.497-10.505,3.95L2.121,0.289L0,2.411l3.773,3.772L3.83,6.125
	c-2.17,2.73-3.476,6.181-3.476,9.941c0,3.818,1.343,7.322,3.575,10.074l-3.691,3.691l2.121,2.121l3.672-3.672
	c2.787,2.357,6.387,3.785,10.323,3.785c3.804,0,7.294-1.334,10.04-3.551l3.6,3.599l2.121-2.122l-3.574-3.573
	C30.914,23.627,32.354,20.018,32.354,16.067z M16.354,29.067c-7.169,0-13-5.832-13-13c0-7.169,5.831-13.001,13-13.001
	s13,5.832,13,13.001C29.354,23.235,23.523,29.067,16.354,29.067z"/>
<path fill="#939598" d="M16.354,8.066c-4.419,0-8,3.583-8,8.001c0,4.416,3.581,8,8,8c4.417,0,8-3.584,8-8
	C24.354,11.648,20.771,8.066,16.354,8.066z M16.354,21.067c-2.757,0-5-2.244-5-5c0-2.758,2.243-5.001,5-5.001s5,2.243,5,5.001
	C21.354,18.823,19.111,21.067,16.354,21.067z"/>
</svg>
